<svg width="400" height="300" xmlns="http://www.w3.org/2000/svg">
  <defs>
    <linearGradient id="ecommerceGrad" x1="0%" y1="0%" x2="100%" y2="100%">
      <stop offset="0%" style="stop-color:#9C27B0;stop-opacity:1" />
      <stop offset="100%" style="stop-color:#6A1B9A;stop-opacity:1" />
    </linearGradient>
  </defs>
  <rect width="400" height="300" fill="url(#ecommerceGrad)"/>
  <!-- Shopping cart -->
  <rect x="140" y="120" width="80" height="50" rx="5" fill="white" opacity="0.9"/>
  <circle cx="155" cy="185" r="8" fill="white" opacity="0.9"/>
  <circle cx="205" cy="185" r="8" fill="white" opacity="0.9"/>
  <rect x="220" y="110" width="15" height="60" fill="white" opacity="0.9"/>
  <rect x="225" y="100" width="30" height="20" rx="3" fill="white" opacity="0.9"/>
  <!-- Computer screen -->
  <rect x="260" y="130" width="100" height="70" rx="5" fill="white" opacity="0.9"/>
  <rect x="270" y="140" width="80" height="50" fill="#9C27B0"/>
  <rect x="275" y="145" width="70" height="6" fill="white"/>
  <rect x="275" y="155" width="50" height="4" fill="#E1BEE7"/>
  <rect x="275" y="163" width="60" height="4" fill="#E1BEE7"/>
  <rect x="275" y="171" width="45" height="4" fill="#E1BEE7"/>
  <rect x="305" y="200" width="20" height="10" fill="white" opacity="0.9"/>
  <!-- Products in cart -->
  <rect x="150" y="130" width="15" height="15" fill="#9C27B0"/>
  <rect x="170" y="130" width="15" height="15" fill="#9C27B0"/>
  <rect x="190" y="130" width="15" height="15" fill="#9C27B0"/>
  <text x="200" y="270" text-anchor="middle" fill="white" font-family="Arial, sans-serif" font-size="18" font-weight="bold">🛒 E-commerce 💻</text>
</svg>